<svg xmlns="http://www.w3.org/2000/svg" width="24.298" height="24.298" viewBox="0 0 24.298 24.298"><defs><style>.a{fill:#a5b7c5;}</style></defs><g transform="translate(0)"><path class="a" d="M21.978,19.291a12.149,12.149,0,1,0-19.658,0,12.156,12.156,0,0,1,19.658,0ZM7.878,7.166a4.271,4.271,0,0,1,8.542,0V8.589a4.271,4.271,0,0,1-8.542,0Zm0,0" transform="translate(0)"/><path class="a" d="M198.847,98.114a2.851,2.851,0,0,0,2.847-2.847V93.843a2.847,2.847,0,0,0-5.695,0v1.424A2.851,2.851,0,0,0,198.847,98.114Zm0,0" transform="translate(-186.698 -86.677)"/><path class="a" d="M68.758,335.813a12.144,12.144,0,0,0,17.775,0A10.731,10.731,0,0,0,68.758,335.813Zm0,0" transform="translate(-65.494 -315.381)"/></g></svg>