<svg xmlns="http://www.w3.org/2000/svg" xmlns:xlink="http://www.w3.org/1999/xlink" width="68" height="300" viewBox="0 0 68 300"><defs><style>.a{fill:#fff;}.b{fill:#ff8181;}.c{fill:#a5b7c5;}.d{filter:url(#a);}</style><filter id="a" x="0" y="0" width="68" height="68" filterUnits="userSpaceOnUse"><feOffset dy="3" input="SourceAlpha"/><feGaussianBlur stdDeviation="3" result="b"/><feFlood flood-opacity="0.161"/><feComposite operator="in" in2="b"/><feComposite in="SourceGraphic"/></filter></defs><g transform="translate(24 21)"><rect class="a" width="50" height="50" rx="8" transform="translate(-15 228)"/><g class="d" transform="matrix(1, 0, 0, 1, -24, -21)"><rect class="b" width="50" height="50" rx="8" transform="translate(9 6)"/></g><g transform="translate(-1 -1)"><path class="a" d="M8.43,0H1.595A1.6,1.6,0,0,0,0,1.595V5.7A1.6,1.6,0,0,0,1.595,7.291H8.43A1.6,1.6,0,0,0,10.025,5.7v-4.1A1.6,1.6,0,0,0,8.43,0Zm0,0"/><path class="a" d="M8.43,213.332H1.595A1.6,1.6,0,0,0,0,214.927V224.5a1.6,1.6,0,0,0,1.595,1.595H8.43a1.6,1.6,0,0,0,1.595-1.595v-9.569A1.6,1.6,0,0,0,8.43,213.332Zm0,0" transform="translate(0 -204.219)"/><path class="a" d="M285.762,341.332h-6.835a1.6,1.6,0,0,0-1.595,1.595v4.1a1.6,1.6,0,0,0,1.595,1.595h6.835a1.6,1.6,0,0,0,1.595-1.595v-4.1A1.6,1.6,0,0,0,285.762,341.332Zm0,0" transform="translate(-265.485 -326.751)"/><path class="a" d="M285.762,0h-6.835a1.6,1.6,0,0,0-1.595,1.595v9.569a1.6,1.6,0,0,0,1.595,1.595h6.835a1.6,1.6,0,0,0,1.595-1.595V1.595A1.6,1.6,0,0,0,285.762,0Zm0,0" transform="translate(-265.485)"/></g><rect class="a" width="50" height="50" rx="8" transform="translate(-15 229)"/><g transform="translate(-6 243)"><path class="c" d="M25.807,93.38A10,10,0,0,0,7.133,90.713,8,8,0,0,0,8,106.666H25.333a6.651,6.651,0,0,0,.473-13.287Z" transform="translate(0 -85.333)"/></g></g></svg>