<svg xmlns="http://www.w3.org/2000/svg" width="5.014" height="9.256" viewBox="0 0 5.014 9.256"><defs><style>.a{fill:#00d0ff;}</style></defs><path class="a" d="M121,1.543h1.157a.193.193,0,0,0,.193-.193V.193A.193.193,0,0,0,122.154,0H121a2.123,2.123,0,0,0-2.121,2.121v1.35h-1.35a.193.193,0,0,0-.193.193V4.821a.193.193,0,0,0,.193.193h1.35v4.05a.193.193,0,0,0,.193.193h1.157a.193.193,0,0,0,.193-.193V5.014h1.35a.193.193,0,0,0,.183-.132l.386-1.157a.193.193,0,0,0-.183-.254h-1.735V2.121A.578.578,0,0,1,121,1.543Z" transform="translate(-117.333)"/></svg>