<svg xmlns="http://www.w3.org/2000/svg" width="23.674" height="18.39" viewBox="0 0 23.674 18.39"><defs><style>.a{fill:#a5b7c5;}</style></defs><g transform="translate(0 -57.142)"><g transform="translate(2.861 57.142)"><g transform="translate(0 0)"><path class="a" d="M66.194,57.142a4.589,4.589,0,1,0,4.321,4.582A4.462,4.462,0,0,0,66.194,57.142Z" transform="translate(-61.873 -57.142)"/></g></g><g transform="translate(13.3 57.798)"><g transform="translate(0 0)"><path class="a" d="M291.343,71.321h-.029a3.585,3.585,0,0,0-2.63,1.189,4.092,4.092,0,0,0,.046,5.517,3.586,3.586,0,0,0,2.619,1.145h.03a3.585,3.585,0,0,0,2.63-1.189,4.023,4.023,0,0,0,1.047-2.768A3.829,3.829,0,0,0,291.343,71.321Z" transform="translate(-287.637 -71.321)"/></g></g><g transform="translate(12.482 66.4)"><g transform="translate(0 0)"><path class="a" d="M274.666,257.358h-.359a6.461,6.461,0,0,0-4.347,1.677,8.342,8.342,0,0,1,3.257,6.189h7.934v-1.381A6.493,6.493,0,0,0,274.666,257.358Z" transform="translate(-269.96 -257.358)"/></g></g><g transform="translate(0 67.739)"><path class="a" d="M14.35,292.845A6.965,6.965,0,0,0,7.4,286.318H6.966A6.966,6.966,0,0,0,0,293.284v.827H14.364v-.827Q14.364,293.063,14.35,292.845Z" transform="translate(0 -286.318)"/></g></g></svg>