<svg xmlns="http://www.w3.org/2000/svg" xmlns:xlink="http://www.w3.org/1999/xlink" width="49" height="49" viewBox="0 0 49 49"><defs><style>.a,.d{fill:#fff;}.b{fill:#aeaeae;}.c{fill:#ff6767;}.d{font-size:8px;font-family:Helvetica;}.e{filter:url(#a);}</style><filter id="a" x="0" y="0" width="49" height="49" filterUnits="userSpaceOnUse"><feOffset dy="3" input="SourceAlpha"/><feGaussianBlur stdDeviation="3" result="b"/><feFlood flood-opacity="0.161"/><feComposite operator="in" in2="b"/><feComposite in="SourceGraphic"/></filter></defs><g transform="translate(-1542 -167)"><g transform="translate(-38 -423)"><g class="e" transform="matrix(1, 0, 0, 1, 1580, 590)"><circle class="a" cx="15.5" cy="15.5" r="15.5" transform="translate(9 6)"/></g><g transform="translate(1565.983 603)"><g transform="translate(31.017 0)"><path class="b" d="M46.024,14.393a3.161,3.161,0,0,1-1.757-2.843V6.626a5.614,5.614,0,0,0-5.1-5.583V.51a.51.51,0,0,0-1.019,0v.533a5.614,5.614,0,0,0-5.1,5.583V11.55A3.161,3.161,0,0,1,31.3,14.393a.51.51,0,0,0,.228.966h5.606v.51a1.529,1.529,0,0,0,3.058,0v-.51H45.8A.51.51,0,0,0,46.024,14.393Zm-6.854,1.475a.51.51,0,0,1-1.019,0v-.51h1.019Zm-6.157-1.529a4.2,4.2,0,0,0,1.06-2.789V6.626a4.587,4.587,0,0,1,9.174,0V11.55a4.2,4.2,0,0,0,1.06,2.789Z" transform="translate(-31.017 0)"/></g></g></g><circle class="c" cx="6" cy="6" r="6" transform="translate(1574 174)"/><text class="d" transform="translate(1578 183)"><tspan x="0" y="0">4</tspan></text></g></svg>