<svg xmlns="http://www.w3.org/2000/svg" width="25" height="25" viewBox="0 0 25 25"><defs><style>.a{fill:#fff;}.b{fill:#ff1d1d;}</style></defs><g transform="translate(-3797 -1344)"><rect class="a" width="25" height="25" rx="4" transform="translate(3797 1344)"/><g transform="translate(3800.558 1349.661)"><path class="b" d="M226,208.07v3.379l2.7-1.69Z" transform="translate(-218.033 -202.885)"/><path class="b" d="M2.644,74.749H15.406A2.647,2.647,0,0,0,18.05,72.1V63.644A2.647,2.647,0,0,0,15.406,61H2.644A2.647,2.647,0,0,0,0,63.644V72.1A2.647,2.647,0,0,0,2.644,74.749ZM6.91,65.23a.529.529,0,0,1,.809-.448l4.23,2.644a.529.529,0,0,1,0,.9l-4.23,2.644a.529.529,0,0,1-.809-.448Z" transform="translate(0 -61)"/></g></g></svg>