<svg xmlns="http://www.w3.org/2000/svg" width="21.872" height="21.872" viewBox="0 0 21.872 21.872"><defs><style>.a{fill:#fff;}</style></defs><path class="a" d="M8.43,0H1.595A1.6,1.6,0,0,0,0,1.595V5.7A1.6,1.6,0,0,0,1.595,7.291H8.43A1.6,1.6,0,0,0,10.025,5.7v-4.1A1.6,1.6,0,0,0,8.43,0Zm0,0"/><path class="a" d="M8.43,213.332H1.595A1.6,1.6,0,0,0,0,214.927V224.5a1.6,1.6,0,0,0,1.595,1.595H8.43a1.6,1.6,0,0,0,1.595-1.595v-9.569A1.6,1.6,0,0,0,8.43,213.332Zm0,0" transform="translate(0 -204.219)"/><path class="a" d="M285.762,341.332h-6.835a1.6,1.6,0,0,0-1.595,1.595v4.1a1.6,1.6,0,0,0,1.595,1.595h6.835a1.6,1.6,0,0,0,1.595-1.595v-4.1A1.6,1.6,0,0,0,285.762,341.332Zm0,0" transform="translate(-265.485 -326.751)"/><path class="a" d="M285.762,0h-6.835a1.6,1.6,0,0,0-1.595,1.595v9.569a1.6,1.6,0,0,0,1.595,1.595h6.835a1.6,1.6,0,0,0,1.595-1.595V1.595A1.6,1.6,0,0,0,285.762,0Zm0,0" transform="translate(-265.485)"/></svg>