<svg xmlns="http://www.w3.org/2000/svg" width="8.314" height="8.315" viewBox="0 0 8.314 8.315"><defs><style>.a{fill:#d68fff;}</style></defs><g transform="translate(-0.449 0)"><path class="a" d="M8.741,2.445a3.038,3.038,0,0,0-.193-1.009A2.13,2.13,0,0,0,7.331.219,3.046,3.046,0,0,0,6.322.026C5.877,0,5.736,0,4.607,0S3.337,0,2.893.024A3.039,3.039,0,0,0,1.885.218,2.029,2.029,0,0,0,1.147.7a2.047,2.047,0,0,0-.479.736A3.047,3.047,0,0,0,.475,2.443C.453,2.888.449,3.03.449,4.159s0,1.27.024,1.714A3.038,3.038,0,0,0,.666,6.881,2.13,2.13,0,0,0,1.883,8.1a3.047,3.047,0,0,0,1.009.193c.443.02.585.024,1.714.024s1.27,0,1.714-.024A3.038,3.038,0,0,0,7.328,8.1,2.127,2.127,0,0,0,8.545,6.881a3.049,3.049,0,0,0,.193-1.009c.019-.443.024-.585.024-1.714s0-1.27-.021-1.714Zm-.749,3.4a2.279,2.279,0,0,1-.143.772A1.379,1.379,0,0,1,7.06,7.4a2.287,2.287,0,0,1-.772.143c-.439.02-.57.024-1.68.024s-1.243,0-1.68-.024A2.278,2.278,0,0,1,2.157,7.4a1.28,1.28,0,0,1-.478-.31,1.293,1.293,0,0,1-.31-.478,2.288,2.288,0,0,1-.143-.772c-.02-.439-.024-.57-.024-1.68s0-1.243.024-1.68a2.278,2.278,0,0,1,.143-.772,1.264,1.264,0,0,1,.312-.478,1.291,1.291,0,0,1,.478-.31A2.289,2.289,0,0,1,2.931.78C3.369.76,3.5.755,4.61.755S5.853.76,6.29.78a2.279,2.279,0,0,1,.772.143,1.279,1.279,0,0,1,.478.31,1.293,1.293,0,0,1,.31.478,2.288,2.288,0,0,1,.143.772c.019.439.024.57.024,1.68s0,1.239-.024,1.678Zm0,0" transform="translate(0 0)"/><path class="a" d="M127.085,124.5a2.136,2.136,0,1,0,2.136,2.136A2.137,2.137,0,0,0,127.085,124.5Zm0,3.522a1.386,1.386,0,1,1,1.386-1.386A1.386,1.386,0,0,1,127.085,128.022Zm0,0" transform="translate(-122.478 -122.478)"/><path class="a" d="M363.447,89.1a.5.5,0,1,1-.5-.5A.5.5,0,0,1,363.447,89.1Zm0,0" transform="translate(-356.121 -87.162)"/></g></svg>