<svg xmlns="http://www.w3.org/2000/svg" width="613.949" height="335" viewBox="0 0 613.949 335"><defs><style>.a{fill:#e1ecf8;}.b{fill:#fff;}.c{fill:#cfd2e2;}.d{fill:#efefef;}.e{fill:#9fbdf9;}.f{fill:#3dd1f9;}.g{fill:#209dba;}.h{fill:#fbab99;}.i{fill:#253777;}.j{fill:#f3feff;}.k{fill:#e08379;}.l{fill:#362d70;}.m{fill:#119cbc;}.n{fill:#202063;}.o{fill:#64ddf9;}.p{fill:#58b8dd;}.q{fill:#83cdf2;}.r{fill:#ade9f7;}.s{fill:#565196;}.t{fill:#ffd1ab;}.u{fill:#4c4c89;}.v{fill:#f4c3ae;}.w{fill:#ffb948;}.x{fill:#f4c09a;}.y{fill:#c3f0fc;}.z{fill:#f9973e;}.aa{fill:#f7b59c;}.ab{fill:#ed9780;}.ac{fill:#1baac1;}.ad{fill:#516aaf;}.ae{opacity:0.6;}.af{fill:#389fe5;}.ag{fill:#88aae2;}.ah{fill:#8fb2ea;}.ai{fill:#443e49;}.aj{fill:#8e8e8e;}.ak{fill:#ebb44f;}.al{fill:#f9daca;}.am{fill:#5d7ec3;}.an{fill:#ddd;}.ao{fill:#a29ee5;}.ap{fill:#7878c4;}.aq{fill:#d6d4ff;}.ar{fill:#0e7c74;}</style></defs><g transform="translate(-0.012)"><g transform="translate(0.012 0)"><rect class="a" width="107.329" height="82.021" transform="translate(394.967 18.001)"/><rect class="b" width="101.939" height="76.458" transform="translate(397.735 20.783)"/><rect class="a" width="75.261" height="5.88" transform="translate(411.081 25.495)"/><rect class="a" width="5.851" height="14.701" transform="translate(408.184 72.898)"/><rect class="a" width="5.851" height="27.614" transform="translate(421.385 59.999)"/><rect class="a" width="5.851" height="24.76" transform="translate(434.587 62.852)"/><rect class="a" width="5.851" height="38.74" transform="translate(447.789 48.872)"/><path class="c" d="M352.641,79.9H280.55V26.62h.793V79.11h71.3Z" transform="translate(123.771 11.746)"/><path class="c" d="M285.193,52.857l-.533-.605,13.721-12.308,12.7,2.753L324.842,27.39l.591.533L311.366,43.589l-12.755-2.782Z" transform="translate(125.585 12.085)"/><path class="c" d="M314.891,30.879,311,27.16l5.016-1.34Z" transform="translate(137.207 11.393)"/><rect class="d" width="26.778" height="1.052" transform="translate(465.905 39.202)"/><rect class="d" width="30.396" height="1.052" transform="translate(462.288 41.753)"/><rect class="d" width="30.396" height="1.052" transform="translate(462.288 44.289)"/><rect class="d" width="30.396" height="1.052" transform="translate(462.288 46.826)"/><rect class="d" width="30.396" height="1.052" transform="translate(462.288 49.377)"/><rect class="d" width="30.396" height="1.052" transform="translate(462.288 51.913)"/><rect class="d" width="30.396" height="1.052" transform="translate(462.288 54.45)"/><rect class="d" width="30.396" height="1.052" transform="translate(462.288 57.001)"/><rect class="d" width="30.396" height="1.052" transform="translate(462.288 59.537)"/><rect class="d" width="30.396" height="1.052" transform="translate(462.288 62.074)"/><rect class="d" width="30.396" height="1.052" transform="translate(462.288 64.625)"/><rect class="d" width="30.396" height="1.052" transform="translate(462.288 67.162)"/><rect class="d" width="30.396" height="1.052" transform="translate(462.288 69.698)"/><rect class="d" width="30.396" height="1.052" transform="translate(462.288 72.249)"/><rect class="d" width="30.396" height="1.052" transform="translate(462.288 74.786)"/><rect class="d" width="30.396" height="1.052" transform="translate(462.288 77.322)"/><rect class="d" width="30.396" height="1.052" transform="translate(462.288 79.859)"/><rect class="d" width="30.396" height="1.052" transform="translate(462.288 82.41)"/><rect class="d" width="13.389" height="1.052" transform="translate(479.294 84.946)"/><path class="e" d="M289.792,257.257h1.888L279.7,147.607a1.845,1.845,0,0,0-1.845-1.657H216.116a1.845,1.845,0,0,0-1.83,1.657L202.28,257.257h1.888l13.4-102.674a1.859,1.859,0,0,1,1.845-1.614h55.171a1.859,1.859,0,0,1,1.845,1.614Z" transform="translate(89.236 64.398)"/><path class="e" d="M276.456,166.235H210.39l2.392-17.035h61.224Z" transform="translate(92.814 65.832)"/><rect class="e" width="79.873" height="2.738" transform="translate(296.301 288.521)"/><path class="e" d="M165.479,257.257H167.4L155.391,147.607a1.845,1.845,0,0,0-1.845-1.657H91.76a1.845,1.845,0,0,0-1.845,1.657L77.91,257.257H79.8L93.216,154.583a1.845,1.845,0,0,1,1.83-1.614h55.185a1.845,1.845,0,0,1,1.83,1.614Z" transform="translate(34.359 64.398)"/><path class="e" d="M152.1,166.235H86.02L88.427,149.2h61.209Z" transform="translate(37.938 65.832)"/><rect class="e" width="79.873" height="2.738" transform="translate(117.068 288.521)"/><path class="e" d="M396.673,257.445h1.9L386.527,147.507a1.859,1.859,0,0,0-1.845-1.657H322.709a1.874,1.874,0,0,0-1.845,1.657L308.83,257.459h1.888l13.447-102.947a1.859,1.859,0,0,1,1.845-1.614h55.329a1.859,1.859,0,0,1,1.845,1.614Z" transform="translate(136.249 64.354)"/><path class="e" d="M383.244,166.193H316.99L319.4,149.1h61.382Z" transform="translate(139.85 65.788)"/><rect class="e" width="80.089" height="2.753" transform="translate(449.922 288.579)"/><path class="f" d="M341,210.73a76.6,76.6,0,0,1,5.289,15.147c1.225,5.131,6.529,6.255,8.345,6.183,5.347-.231,8.489-5.65,8.719-9.469s-5.188-5.188-7.134-8.547-.216-7.206-2.335-8.95a15.307,15.307,0,0,0-5.923-2.335" transform="translate(150.444 89.465)"/><path class="g" d="M342.43,210.732a8.964,8.964,0,0,0,6.687-3.344c.115-.144,0-.418-.216-.288a25.353,25.353,0,0,1-6.471,3.574h0Z" transform="translate(151.075 91.365)"/><path class="g" d="M342.75,212.259a9.873,9.873,0,0,0,7.206-3.445c.115-.13,0-.4-.216-.274a25.5,25.5,0,0,1-6.99,3.661h0Z" transform="translate(151.216 92)"/><path class="g" d="M343.184,213.831a11.083,11.083,0,0,0,7.725-3.7c.13-.144,0-.4-.216-.288a26.6,26.6,0,0,1-7.523,3.935h0Z" transform="translate(151.401 92.576)"/><path class="g" d="M361.1,221.118a6.384,6.384,0,0,0-1.931-2.58h.072a19.788,19.788,0,0,1-4.742-6.2c-.36-1.312-.317-4.324-.793-5.693s-2.637-2.248-2.637-2.248c.807,1.312.634,3.834.764,5.419a10.378,10.378,0,0,0,2.205,5.232,14.614,14.614,0,0,0,1.9,1.657,6.27,6.27,0,0,1,2.551,5.578,5.256,5.256,0,0,1-.1.634c-.634,2.882-3.689,6.37-6.226,7a11.529,11.529,0,0,1-4.8.159,8.647,8.647,0,0,0,5.044,1.557,7.912,7.912,0,0,0,6.63-3.7C359.985,226.624,361.715,223.078,361.1,221.118Z" transform="translate(153.25 90.189)"/><path class="f" d="M344.279,213.1a28.978,28.978,0,0,0-3.617,5.26c-.778,1.83-1.83,9.541-8.82,11.429a11.243,11.243,0,0,1-1.629.317c-8.46,1.081-13.562-6.327-13.562-8.215a7.8,7.8,0,0,1,.908-3.5,7.942,7.942,0,0,1,2.883-3.07c2.81-1.73,6.212-1.8,9.656-4.108a28.278,28.278,0,0,0,6.082-5.765Z" transform="translate(139.7 90.652)"/><path class="g" d="M331.841,225.83a10.418,10.418,0,0,1-2.493,1.2c-6.529,1.441-12.7-7.206-12.7-9.094a7.8,7.8,0,0,1,.908-3.5S319.763,224.605,331.841,225.83Z" transform="translate(139.7 94.614)"/><path class="g" d="M328.34,209.109a9.944,9.944,0,0,0,6.442,4.987c.187,0,.317-.231.144-.331a25.366,25.366,0,0,1-6.543-4.684h0Z" transform="translate(144.858 92.253)"/><path class="g" d="M327,210.133a11.054,11.054,0,0,0,6.774,5.433.174.174,0,1,0,.144-.317,25.84,25.84,0,0,1-6.875-5.16h0Z" transform="translate(144.267 92.699)"/><path class="g" d="M325.75,211.253a12.409,12.409,0,0,0,7.293,5.851c.187,0,.317-.231.144-.331a26.606,26.606,0,0,1-7.394-5.563h0Z" transform="translate(143.715 93.193)"/><path class="h" d="M322.851,104.64s-4.915,15.234-4.41,18.578,6.356,6.716,10.824,5.1,5.073-19.01,5.073-19.01" transform="translate(140.474 46.171)"/><path class="i" d="M352.924,136.683s.548,20.884-3.171,26.475-14.081,15.047-14.081,15.047c12.308,16.963,29.315,54.19,29.315,54.19l-10.161,8.2s-45.644-53.1-45.716-69.367c4.482-17.511,17.525-34.59,17.525-34.59" transform="translate(136.373 60.29)"/><path class="i" d="M380.43,156.1s-.966,19.875-3.243,31.491c-6.947,17.151-38.524,57.75-38.524,57.75a24.113,24.113,0,0,1-5.448-3.171,39.87,39.87,0,0,1-3.747-3.243,15.216,15.216,0,0,1-1.167-1.225s14.816-27.686,18.952-35.944c4.468-8.95,7.826-14.283,7.711-16.4-2.882-3.257-9.584-15.594-13.3-22.627h0c-1.585-2.882-2.609-4.943-2.609-4.943l-.951-17.9,13.62-3.718s26.029,4.583,26.591,5.16S380.43,156.1,380.43,156.1Z" transform="translate(144.84 60.083)"/><path class="f" d="M400.777,106.177c-4.67-12.106-16.358-18.448-22.642-21.546-1.6-.778-2.075-.98-2.075-.98l-15.854-.231s-.663,0-3.531.115c-6.687.317-20.264,4.021-23.593,6.3-9.137,6.255-14.672,29.372-14.672,29.372l12.582,5.549s-.879,15.609-4.324,26.706a9.959,9.959,0,0,1-2.652,4.093,2.147,2.147,0,0,0-.634,1.845,1.8,1.8,0,0,0-.879,2.767s57.4,6.529,62.261,19.2a6.356,6.356,0,0,0,1.052-7.48,5.52,5.52,0,0,0,.274-2.71,36.766,36.766,0,0,1,.749-11.7l3.2-15.565,11.861.937S403.976,114.522,400.777,106.177Z" transform="translate(140.476 36.808)"/><path class="h" d="M362.138,123.14l-1.038,8.59,12.308,2.32,3.113-9.267" transform="translate(159.313 54.334)"/><path class="j" d="M354.749,88.34s-13.058,40.355-13.879,46.754,1.657,19.788,3.171,20.7,7.711-12.005,9.512-17.525,3.43-49.564,3.43-49.564" transform="translate(150.315 38.979)"/><path class="h" d="M382.889,128.407l-6.068-1.067a2.45,2.45,0,0,1-1.643,2.364c-1.686.461-6.716.317-12.251.62-8.359.461-12.683,1.1-16.92,1.067-1.672,0-6.644-.548-6.644-.548s-2.637-.533-3.473-.576-9.527,5.477-9.57,6,2.335.461,5.578.735c2.623.231,7.84.086,9.743,0v.13l16.387,1.715s20.8,2.018,24.948,1.773S391.017,126,391.017,126Z" transform="translate(143.966 55.596)"/><path class="h" d="M368.458,70.25l-19.9,3.041a36.029,36.029,0,0,1,.706,5.938,32.953,32.953,0,0,1,0,3.935,18.837,18.837,0,0,1-.749,4.324c-.346.807-1.34,1.729-3.531,1.845,0,0,.908,5.851,10.175,5.866,9.008,0,11.3-4.77,11.3-4.77a2.176,2.176,0,0,1-.317-.187,4.944,4.944,0,0,1-1.974-2.609C363.932,87.1,365.071,75.5,368.458,70.25Z" transform="translate(152.2 30.997)"/><path class="k" d="M361.266,74.437c-3.718,4.324-11.1,6.86-13.346,7.538a32.953,32.953,0,0,0,0-3.935C354.045,75.186,364.422,70.69,361.266,74.437Z" transform="translate(153.497 32.215)"/><path class="h" d="M343.547,57.766a16.224,16.224,0,0,0-1.124,3.589c-1.167,5.765-4.943,26.346.086,28.652,5.88,2.71,15.551-1.009,20.321-4.223,9.065-6.111,11.847-7.725,11.861-18.736C374.707,51.914,350.422,42.979,343.547,57.766Z" transform="translate(149.986 22.151)"/><path class="l" d="M336.28,56.365s9.253,11.53,24.631,5.03c0,0-1.989,3.834-1.052,7.091s2.32,5.174,2.32,7.206l1.585-.461s1.211-4.8,5.318-3.358.418,11.89,1.3,12.034,5.693-5.606,7.84-12.971,2.234-12.885-4.943-14.412a12.481,12.481,0,0,0-9.2-7.739C356.991,47.4,336.28,56.365,336.28,56.365Z" transform="translate(148.361 21.461)"/><path class="f" d="M345,84.581s2.436-.591,2.883-1.441a7.206,7.206,0,0,0,.605-2.09l2.479,2.7c1.441.937,3.243,1.787,3.459,3.574l.288,2.465.432-1.888a4.771,4.771,0,0,1,3.69-3.632,26.247,26.247,0,0,0,5.578-1.845,6.168,6.168,0,0,0,2.681,3.56,16.935,16.935,0,0,1-6.168,4.425,22.353,22.353,0,0,1-12.6-.5C345.346,88.7,345,84.581,345,84.581Z" transform="translate(152.209 35.762)"/><path class="m" d="M366.072,101.76c-.288,2.565-.605,5.145-.98,7.7s-.706,5.131-1.11,7.682-.764,5.116-1.2,7.667l-.634,3.834-.3,1.9c-.072.634-.2,1.3-.259,1.874l-.3-.36c3.617.634,7.206,1.1,10.924,1.441s7.336.807,11,1.182c-3.675-.159-7.365-.432-11.04-.721s-7.35-.706-11.011-1.254h-.317v-.332c.086-1.441.3-2.609.476-3.906l.562-3.848c.36-2.551.822-5.1,1.239-7.653s.894-5.1,1.441-7.639S365.51,104.282,366.072,101.76Z" transform="translate(159.198 44.9)"/><path class="m" d="M326.71,125.706s0-1.8.159-4.5c.086-1.355.144-2.882.288-4.612l.432-5.275.562-5.261c.173-1.672.4-3.228.562-4.569.375-2.681.692-4.453.692-4.453s0,1.8-.158,4.5c-.086,1.355-.144,2.882-.288,4.612l-.389,5.246-.562,5.261c-.173,1.686-.4,3.243-.562,4.583C327.027,123.933,326.71,125.706,326.71,125.706Z" transform="translate(144.139 42.817)"/><path class="n" d="M330.42,212.36s.922-2.061,2.378-5.088c.749-1.513,1.585-3.286,2.551-5.16l3-5.866,3.127-5.765c.994-1.859,1.974-3.56,2.8-5.03,1.672-2.882,2.882-4.843,2.882-4.843s-.908,2.061-2.364,5.088c-.749,1.441-1.585,3.286-2.551,5.16l-3.012,5.866-3.113,5.765c-.994,1.859-1.989,3.56-2.8,5.03C331.6,210.444,330.42,212.36,330.42,212.36Z" transform="translate(145.776 79.691)"/><path class="n" d="M337.28,219.315s1.34-2.061,3.416-5.088c1.052-1.441,2.248-3.286,3.589-5.145s2.753-3.863,4.18-5.851l4.252-5.765,3.762-5.016,3.675-4.9s-1.211,2.133-3.243,5.2c-1.023,1.513-2.205,3.315-3.531,5.188l-4.151,5.866c-1.441,1.974-2.882,3.935-4.324,5.765s-2.71,3.531-3.834,4.987C338.851,217.441,337.28,219.315,337.28,219.315Z" transform="translate(148.802 82.754)"/><path class="j" d="M351.235,84.55a4.626,4.626,0,0,1,3.1.432c.62.432.937,2.45.937,3.012s-1.557,2.147-2.22,2.7a8.95,8.95,0,0,1-2.306-.331,7.322,7.322,0,0,1-1.1-3.574,3.358,3.358,0,0,1,1.585-2.234Z" transform="translate(154.26 37.263)"/><path class="o" d="M354.406,86.045s-2.234,3.488-2.681,3.949a71.847,71.847,0,0,1-6.486-5.448c.115-.605,3.171-3.935,3.589-3.661C348.641,82.268,353.369,84.819,354.406,86.045Z" transform="translate(152.315 35.682)"/><path class="o" d="M353.687,90.668c2.666-.865,7.35-4.035,10.478-4.756-.072-1.009-1.931-4.511-2.882-4.612.1.663-9.613,4.223-9.642,4.554A21.1,21.1,0,0,0,353.687,90.668Z" transform="translate(155.139 35.872)"/><path class="p" d="M356.9,148h-72.84l-9.728-46.12a2.191,2.191,0,0,1,2.133-2.637h68.387a2.191,2.191,0,0,1,2.133,1.729Z" transform="translate(121.008 43.788)"/><path class="q" d="M355.482,148h-72.84l-9.728-46.12a2.191,2.191,0,0,1,2.133-2.637h68.387a2.191,2.191,0,0,1,2.133,1.729Z" transform="translate(120.382 43.788)"/><rect class="r" width="102.746" height="3.228" rx="0.9" transform="translate(400.977 191.238)"/><ellipse class="p" cx="5.549" cy="4.396" rx="5.549" ry="4.396" transform="translate(428.073 160.323)"/><path class="s" d="M225.514,211.567a4.324,4.324,0,0,0-4.41-1.3,3.718,3.718,0,0,0-2.594,2.623c-.706,2.58.4,6.6,1.067,11.069.576,3.949,2.45,10.377,5.765,10.492s1.7-12.813,1.9-18.621" transform="translate(96.297 92.707)"/><path class="s" d="M241.386,194.7a4.324,4.324,0,0,0-4.425-1.3,3.747,3.747,0,0,0-2.594,2.623c-.706,2.58,1.931,5.866,1.441,10.665-.461,3.949,2.133,10.78,5.477,10.9s2.882-13.144,3.1-18.952" transform="translate(103.34 85.262)"/><path class="t" d="M242.355,172.872s-1.326,10.881-2.767,21.806c-.173,1.3-.375,3.445-.605,5.765a6.384,6.384,0,0,1-1.312,3.358c-.36.461-.994.5-1.326,1.441-.793,2.1.85,5.952,1.326,8.647.721,3.8,2.061,5.188,3.214,5.188,1.946,0,2.176-7.365,2.335-8.936.432-4.482,11.53-25.063,17.295-38.812Z" transform="translate(104.172 75.597)"/><path class="t" d="M226.487,189.738s-1.312,10.881-2.753,21.806c-.173,1.3-.389,3.445-.605,5.765a6.5,6.5,0,0,1-1.311,3.358c-.36.461-.994.5-1.34,1.441-.793,2.1.1,6.1.576,8.748.721,3.819,2.609,5.909,3.762,5.909s1.11-2.883,1.441-5.765a17.77,17.77,0,0,1,.951-4.468c1.441-4.324,11.674-24.573,17.525-38.322Z" transform="translate(97.125 83.045)"/><path class="s" d="M284.957,156.106c-1.672-4.612-11.9-13.461-17.381-17.958a15.522,15.522,0,0,1-5.1-7.97,24.716,24.716,0,0,1-.937-5.765c0-4.136-38.121,0-38.121,0l-5.059,1.124a43.238,43.238,0,0,1-2.018,8.647,19.134,19.134,0,0,1-.836,2.09c-.317.649-4.987,10.521-4.324,20.019s10.348,13.389,14.643,16.92,13.994,6.313,8.777,24.04c-2.882,10.089-5.073,22.57-5.073,22.57s3.272-.259,21.085,4.583c9.685,2.637,17.151-4.54,29.43-2.306C276.136,202.067,289.323,168.125,284.957,156.106Z" transform="translate(93.134 54.084)"/><path class="u" d="M235.12,141.07s.937.649,2.479,1.917a61.237,61.237,0,0,1,6,5.678,45.511,45.511,0,0,1,3.473,4.324,25.522,25.522,0,0,1,2.955,5.534,15.1,15.1,0,0,1,.764,3.3,19.179,19.179,0,0,1,.087,3.416,49.715,49.715,0,0,1-.821,6.817c-.375,2.263-.937,4.482-1.441,6.659s-1.124,4.324-1.686,6.356c-1.11,4.122-2.335,7.912-3.272,11.184s-1.773,5.981-2.263,7.912l-.778,3.027s.13-1.139.476-3.1.894-4.756,1.729-8.071,1.744-7.206,2.882-11.285c.548-2.061,1.081-4.194,1.585-6.356s.966-4.324,1.441-6.6a52.455,52.455,0,0,0,.908-6.615,20.167,20.167,0,0,0,0-3.228,14.412,14.412,0,0,0-.663-3.012,31.794,31.794,0,0,0-5.765-9.772,67.193,67.193,0,0,0-5.592-6C235.985,141.805,235.12,141.07,235.12,141.07Z" transform="translate(103.726 62.245)"/><path class="v" d="M266.69,77.585a4.036,4.036,0,0,1-.966-1.7c-.1-.764.346-1.211.663-1.153s1.211,1.225,1.7,1.744,1.225,1.441,1.225,1.441" transform="translate(117.223 32.972)"/><path class="t" d="M264.31,87.4s.908-1.672,1.038-2.1-.418-.476-.144-1.83c0,0-1.009-4.972.087-6.14s4.324-1.441,5.16-.36c.951.274,1.7,2.652,2.075,4.511s-1.239,4.237-1.614,4.972-1.239,2.782-1.239,2.782" transform="translate(116.605 33.661)"/><path class="w" d="M271.875,116.473a12.87,12.87,0,0,0-3.084,8.172,3.733,3.733,0,0,1-3.949.85,10.81,10.81,0,0,1-1.917-1.441,80.934,80.934,0,0,1-6.241-7.206l-.346-.476a75.751,75.751,0,0,1-12.755-24.688c-1.441-5-.865-10.881,3.819-13.4a11.069,11.069,0,0,1,6.428,5.765c1.974,3.718,5.938,11.789,9.685,18.952C267.219,109.944,270.65,116.026,271.875,116.473Z" transform="translate(107.153 34.54)"/><path class="w" d="M245.695,75.89a15.349,15.349,0,0,1,10.161,7.9,29.3,29.3,0,0,1,1.441,3.171c1.816,4.612,3.949,10.233,5.765,14.845-2.479,2-5.116,1.441-7.639,2.421a16.906,16.906,0,0,1-7.466,1.009,4.151,4.151,0,0,1-1.254-.274,4.208,4.208,0,0,1-1.3-1.124c-.778-.894-1.542-1.8-2.277-2.724a7.553,7.553,0,0,1-1.513-2.609,7.869,7.869,0,0,1,.36-4.064" transform="translate(106.54 33.485)"/><path class="l" d="M251.045,51.906c2,6.111.476,14.11,3.574,19.385,1.239,2.119,3.344,3.79,3.935,6.168a5.376,5.376,0,0,1-7.725,6.039,7.107,7.107,0,0,0-1.2-.591c-1.528-.447-2.882.922-4.223,1.816a6.413,6.413,0,0,1-5.578.98c-2.378-.793-3.863-3.185-4.655-5.563-2.205-6.659-.634-13.951,1.441-20.653,1.023-3.358,2.537-7.076,5.765-8.287" transform="translate(103.28 22.591)"/><path class="w" d="M275.771,85.794c-3.949,13.13-7.321,30.8-9.44,34.763a6.182,6.182,0,0,1-1.629,1.874,3.733,3.733,0,0,1-3.949.85,10.809,10.809,0,0,1-1.917-1.441,52.055,52.055,0,0,1-6.241-7.206l-.346-.476a124.168,124.168,0,0,1,7.206-13.418c4.107-6.976,8.575-14.124,10.29-17.54Z" transform="translate(111.284 36.711)"/><path class="t" d="M249.039,91.718,232.22,89.181l-11.53-6.442s12.02-3.978,12.121-5.174-.418-13.375-.418-13.375l6.327,3.834L244.2,71.4v2.652c0,1.7.259,3.618.778,3.834a23.622,23.622,0,0,0,3.935,1.225Z" transform="translate(97.359 28.323)"/><path class="x" d="M239.106,72.919a13.144,13.144,0,0,1-6.716-6.269l1.139.245,5.506,3.416S239.034,71.565,239.106,72.919Z" transform="translate(102.521 29.408)"/><path class="y" d="M272.719,78.158A3.012,3.012,0,0,0,271,76.4a4.093,4.093,0,0,0-2.263-.13l.216-1.729h-14.3l1.7,13.086a1.931,1.931,0,0,0,.778,1.34,2.22,2.22,0,0,0,.692.346,2.119,2.119,0,0,0,.519,0h6.889a1.975,1.975,0,0,0,1.2-.389h0a2.047,2.047,0,0,0,.778-1.34h0l.187-1.513a17.549,17.549,0,0,0,1.931-1.2C271.638,83.259,273.886,81.213,272.719,78.158ZM268.8,84.11c-.332.245-.749.519-1.139.749l.98-7.523a3.271,3.271,0,0,1,2.032,0,1.9,1.9,0,0,1,1.1,1.182C272.618,80.708,271.321,82.222,268.8,84.11Z" transform="translate(112.348 32.89)"/><path class="r" d="M268.007,74.54l-.216,1.729-.144,1.067-.98,7.523-.173,1.254-.187,1.513h0a2.047,2.047,0,0,1-.778,1.34h0a1.974,1.974,0,0,1-1.2.389h-6.9a2.119,2.119,0,0,1-.519,0c1.139-.476,7.956-3.776,8.244-14.773Z" transform="translate(113.34 32.89)"/><path class="t" d="M268.555,76.271s-3.329-.476-3.848.36-.49,1.441-.288,1.643-.288.836-.346,1.441a.922.922,0,0,0,.346.85,3.893,3.893,0,0,0-.274.922c-.144.576.346.735.447.994s-.159.749.072,1.11.822.519,2.075.677a6.514,6.514,0,0,0,4.021-1.211" transform="translate(116.497 33.594)"/><path class="w" d="M260.567,121.081a95.866,95.866,0,0,0-1.441,14.888c.086,3.344.115,6.687,1.283,9.339s-.346,2.609-.822,2.7a95.28,95.28,0,0,1-43.079-1.139c-1.268-.4.476-2.8.663-4.324,1.211-10.247.764-24.991-1.729-49.29-.922-9.022,1.571-11.415,2.147-12.15a13.88,13.88,0,0,1,4.857-3.517,52.865,52.865,0,0,1,11.04-3.315s3.646,10.853,13.187,12.164c5.2-2.147,4.742-8.647,4.67-11.746,1.7.461,2.465.937,7.739,2.508,1.441,2.119.187,6.572,2.594,13.187a40.556,40.556,0,0,1,2.263,12.9,26.2,26.2,0,0,1-.591,6.687C262.455,113.544,261.3,117.276,260.567,121.081Z" transform="translate(94.954 32.771)"/><path class="t" d="M254.88,52.608s.865,16.675-4.079,24.933c-2.465,4.122-10.564,1.441-15.854-3.733-14.066,0-10.391-13.576-10.319-14.5s20.754-8.95,20.754-8.95Z" transform="translate(98.883 22.221)"/><path class="l" d="M262.537,53.078a6.4,6.4,0,0,1-2.551,4.871,4.626,4.626,0,0,1-2.162.49c-2.378,0-4.324-1.441-6.687-1.254a4.439,4.439,0,0,0-2.882,1.614c-.836,1.052-.721,2.493-1.715,3.473-1.571,1.557-4.007,1.441-5.88,2.45a1.8,1.8,0,0,0-.807.649,2.176,2.176,0,0,0-.2,1.009,26.968,26.968,0,0,1-.1,2.882c-.937-.418-1.038-1.729-1.8-2.407a2.133,2.133,0,0,0-2.681.187,4.453,4.453,0,0,0-1.283,2.565,7.336,7.336,0,0,0,.519,3.517,12.408,12.408,0,0,0,1.816,2.407,55.358,55.358,0,0,1-.562,13.951,2.09,2.09,0,0,1-2.652,1.441h0a8.647,8.647,0,0,0-5.578-.274,17.614,17.614,0,0,1-3.113,1.441,4.915,4.915,0,0,1-3.07-.721l-.922-.533a7.725,7.725,0,0,1-3.762-3.8c-.98-2.637-1.441-6.687,0-9.253.922-1.729,2.652-2.882,3.848-4.425a13.663,13.663,0,0,0,2.277-7.7,49.112,49.112,0,0,1,.548-8.114c.98-4.525,2.277-8.864,5.765-11.789,5.606-4.684,18.477-6.875,30.9,1.124A6.356,6.356,0,0,1,262.537,53.078Z" transform="translate(95.088 18.335)"/><path class="t" d="M244.1,121.182c-1.182-3.5-11.775-26.317-14.946-33.956A11.025,11.025,0,0,0,223.29,81c-4.9,2.075-5.981,7.884-5.059,12.971,3.877,21.374,18.376,38.395,20.638,39.086C236.189,125.332,244.1,121.182,244.1,121.182Z" transform="translate(96.142 35.74)"/><path class="t" d="M267.572,143.177h0a9.6,9.6,0,0,0-3.358-3.3C252.8,132.252,236.283,123.6,233.184,121c0,0-7.624-5.765,4.886-12.726,2.133.4,21.849,18.736,28.493,24.9a6.976,6.976,0,0,0,4.324,1.9c5.289.36,9.887,8.647,10.781,11.962C282.085,148.668,272.343,149.057,267.572,143.177Z" transform="translate(101.857 47.773)"/><path class="w" d="M222.022,77a12.813,12.813,0,0,0-8.229,13.648c.346,3.185,5.621,22.9,5.621,22.9a32.961,32.961,0,0,0,9.829-.908c4.641-1.355,9.627-7.394,9.627-7.394s-3.718-5.952-4.18-10.2c-.288-2.652,3.3-.591,3.3-.591l-2.955-14.3Z" transform="translate(94.268 33.975)"/><path class="u" d="M262.551,163.41l-.115.36a7.637,7.637,0,0,1-.4,1.038c-.389.865-.98,2.09-1.773,3.517-1.557,2.882-3.733,6.543-5.765,10.319s-4.05,7.581-5.52,10.463l-1.758,3.473c-.432.85-.706,1.312-.706,1.312s.144-.519.432-1.441.692-2.205,1.283-3.718c.288-.764.591-1.585.966-2.45s.735-1.758,1.167-2.681c.836-1.859,1.816-3.79,2.882-5.693s2.147-3.776,3.257-5.477,2.176-3.272,3.1-4.6,1.744-2.392,2.234-3.2a13.133,13.133,0,0,0,.721-1.225Z" transform="translate(108.751 72.102)"/><path class="w" d="M267.582,144.524a16.647,16.647,0,0,0,4.237-5.635s-13.663-12.51-16.69-15.205-12.207-10.089-12.611-10.925-7.105-16.2-7.105-16.2l-13.894,8.172s5.851,10.723,8.229,14.11a47.56,47.56,0,0,0,10.406,10.089C244.479,132.231,267.582,144.524,267.582,144.524Z" transform="translate(97.725 42.606)"/><path class="z" d="M214,87.94s2.162,4.785,5.765,11.818c1.758,3.517,3.92,7.566,6.37,11.8,1.239,2.119,2.522,4.324,3.992,6.4a40.483,40.483,0,0,0,4.814,6.024,57.474,57.474,0,0,0,5.765,5.116c2.047,1.557,4.093,3.041,6.125,4.425,4.05,2.753,7.9,5.246,11.256,7.293s6.168,3.747,8.157,4.9l3.113,1.816s-4.727-2.292-11.53-6.183c-3.4-1.974-7.379-4.324-11.53-7.033-2.047-1.441-4.136-2.882-6.212-4.4a56.2,56.2,0,0,1-5.909-5.145,42.577,42.577,0,0,1-4.886-6.226c-1.441-2.162-2.738-4.324-3.963-6.5-2.436-4.324-4.41-8.46-6.1-12.02C215.888,92.869,214,87.94,214,87.94Z" transform="translate(94.407 38.802)"/><path class="z" d="M225.84,88.44s1.686,3.027,4.151,7.6l4.194,7.811c1.528,2.882,3.171,5.895,4.9,8.878.418.749.865,1.441,1.3,2.22l.692,1.052a4.684,4.684,0,0,0,.778.85c1.268,1.139,2.536,2.248,3.747,3.315,2.436,2.147,4.641,4.208,6.572,5.952,3.819,3.5,6.313,5.909,6.313,5.909s-2.738-2.133-6.731-5.448c-1.989-1.672-4.324-3.574-6.8-5.765l-3.79-3.257a5.837,5.837,0,0,1-.951-1.009l-.735-1.1c-.461-.749-.937-1.441-1.355-2.248-1.715-3.027-3.3-6.1-4.785-8.979s-2.767-5.635-3.906-7.97C227.209,91.625,225.84,88.44,225.84,88.44Z" transform="translate(99.631 39.023)"/><path class="z" d="M245.51,84.4s.259.432.677,1.2,1.009,1.859,1.643,3.228a47.563,47.563,0,0,1,1.974,4.727,22.887,22.887,0,0,1,1.441,5.765,15.565,15.565,0,0,1-.1,3.07,22.674,22.674,0,0,1-.562,2.882c-.447,1.83-1.052,3.473-1.441,4.886s-.879,2.594-1.11,3.43l-.375,1.312a7.7,7.7,0,0,1,.173-1.355,35.188,35.188,0,0,1,.721-3.56c.36-1.441.764-3.142,1.153-4.943.187-.894.332-1.83.447-2.782a14.524,14.524,0,0,0,0-2.882,15.97,15.97,0,0,0-.461-2.882c-.245-.922-.49-1.845-.764-2.724-.562-1.758-1.11-3.416-1.629-4.8Z" transform="translate(108.31 37.24)"/><path class="z" d="M255.519,108.4a12.077,12.077,0,0,1-.288-2.8,16.82,16.82,0,0,1,.274-2.882,16.362,16.362,0,0,1,.937-3.2,18.385,18.385,0,0,1,1.528-2.882c.548-.879,1.11-1.686,1.571-2.392.922-1.441,1.6-2.292,1.6-2.292s-.461,1.023-1.239,2.508c-.4.735-.85,1.614-1.441,2.522a24.508,24.508,0,0,0-1.441,2.882,21.893,21.893,0,0,0-1.441,5.765c-.087.836-.13,1.528-.13,2Z" transform="translate(112.599 40.576)"/><path class="z" d="M233.66,107.659a9.254,9.254,0,0,1,2.219-.1,6.442,6.442,0,0,1,1.542.331,3.677,3.677,0,0,1,.692.3l-.591.85a3.023,3.023,0,0,0-.476-.36,5.074,5.074,0,0,0-1.283-.605,9.181,9.181,0,0,0-2.1-.418Z" transform="translate(103.082 47.447)"/><path class="z" d="M246.679,79.228a8.054,8.054,0,0,1-.13,1.211,12.858,12.858,0,0,1-.879,3.127,8.157,8.157,0,0,1-1.139,1.874,4.569,4.569,0,0,1-2.018,1.441,5.275,5.275,0,0,1-2.681.245,9.815,9.815,0,0,1-2.623-.778,19.746,19.746,0,0,1-4.324-2.882,20.853,20.853,0,0,1-3.041-3.445,25.694,25.694,0,0,1-1.686-2.681,11.533,11.533,0,0,1-.519-1.11s.216.389.634,1.038,1.1,1.528,1.9,2.565a21.619,21.619,0,0,0,7.408,5.952,9.209,9.209,0,0,0,2.407.778,4.8,4.8,0,0,0,2.364-.173,5.765,5.765,0,0,0,3-2.882,15.146,15.146,0,0,0,1.11-2.969C246.607,79.66,246.679,79.228,246.679,79.228Z" transform="translate(100.425 33.635)"/><path class="aa" d="M152.59,51.868c-1.211,2.882-4.987,6.543-8.028,7-10.377,1.528-14.96-4.943-16.5-7.321.2-.086.548-.187.793-.259a6.1,6.1,0,0,0,3.718-5.03,50.444,50.444,0,0,0-.4-11.861l14.283,5.073c.144.994.259,2.09.346,3.2,0,.677.086,1.34.115,1.989s0,1.211,0,1.758a4.756,4.756,0,0,0,2.882,4.223Z" transform="translate(56.487 15.178)"/><path class="l" d="M143.091,31.081a8.287,8.287,0,0,0,1.917,5.592,5.332,5.332,0,0,0,3.416,2.349c1.441.173,1.629-18.131.865-19.111a4.6,4.6,0,0,0-4.41-1.7" transform="translate(63.117 8.005)"/><path class="ab" d="M144,42.8a15.436,15.436,0,0,1-3.372.245,7.206,7.206,0,0,1-5.967-4.41,22.382,22.382,0,0,0,9.224,2.176C143.927,41.484,143.97,42.147,144,42.8Z" transform="translate(59.399 17.045)"/><path class="aa" d="M150.185,19C157,24.9,159.87,49.271,156.671,50.712c-6.039,2.7-17.295,2.335-22.613-1.758-5.678-4.425-5.981-14.9-6.068-21.532,0-6.01,1.441-14.081,9.008-13.85A20.984,20.984,0,0,1,150.185,19Z" transform="translate(56.456 5.986)"/><path class="l" d="M131.25,27.133a6.3,6.3,0,0,0,6.918.764,26.774,26.774,0,0,1,2.407-1.441,10.766,10.766,0,0,1,4.511-.245,20.494,20.494,0,0,0,6.413-.634,7.336,7.336,0,0,0,2.954-1.283,9.4,9.4,0,0,0,1.528-1.441,4.928,4.928,0,0,1,.836-.98c.231-.173.5-.288.749-.447a3.819,3.819,0,0,0,.418-5.895,1.758,1.758,0,0,0-.735-.36,2.681,2.681,0,0,0-1.816.548,6.471,6.471,0,0,0-.822-3.214,4.107,4.107,0,0,0-3-1.629,8.921,8.921,0,0,0-3.473.461,23.059,23.059,0,0,0-3.387,1.34,5.073,5.073,0,0,1-1.83.649,8.013,8.013,0,0,1-2.147-.432,9.31,9.31,0,0,0-3.733.115,14.023,14.023,0,0,0-6.284,2.45,6.053,6.053,0,0,0-2.277,6.442" transform="translate(56.584 4.79)"/><path class="l" d="M135.638,21.4a7.206,7.206,0,0,1,2.147,4.18,13.317,13.317,0,0,1,0,7.134c-.216.649,0,3.733-.62,3.6-.259,0-.562-2.205-1.167-3.372-.951-1.816-3.632-2.047-4.525-.706-1.6,2.378,0,4.569.476,5.664s1.369,1.7,1.629,2.609c.346,1.167,1.11,5.506.49,6.659s-1.874-3.041-2.594-3.747c-5.361-5.3-8.95-22.31-3.142-25.092a4.583,4.583,0,0,1,3.6-.49" transform="translate(55.294 7.798)"/><path class="f" d="M171.865,139.506c-3.574,4.742-17.453,4.482-23.377,4.18-22.872-1.2-29.891-4.18-29.891-4.18-4.324-1.312,0-5.765.115-7.855.634-17.972-3.012-46.12-3.012-46.12l7.639-36.694A79.269,79.269,0,0,1,134.148,46.1s4.54,7.437,12.971,7.566a9.57,9.57,0,0,0,9.858-7.566,51.885,51.885,0,0,1,12.668,4.021l2.464,33.61-.461,45.543a15.581,15.581,0,0,0,.937,4.785C173.162,135.846,173.623,138.325,171.865,139.506Z" transform="translate(51.033 20.341)"/><path class="aa" d="M165.686,60.4s8.849,17.439,9.887,19.716c3.416,7.523-3.473,17.295-9.829,9.772-3-3.56-14.744-19.731-14.744-19.731" transform="translate(66.609 26.651)"/><path class="ab" d="M162.7,64.63s-2.364,14.2,0,21.619l4.324-17.612Z" transform="translate(71.309 28.517)"/><path class="aa" d="M127.424,68.629a97.4,97.4,0,0,1-4.122,9.008,60.447,60.447,0,0,1-3.445,5.895,22.31,22.31,0,0,1-4.814,5.462c-6.313,4.67-12.265-2.032-11.847-3.79s5.693-18.073,5.693-18.073Z" transform="translate(45.507 29.62)"/><path class="ab" d="M121.185,74.42a60.448,60.448,0,0,1-3.445,5.895h-5.016l-4.785-2.882a38.178,38.178,0,0,1,13.245-3.012Z" transform="translate(47.609 32.837)"/><path class="f" d="M158.887,51.565A56.855,56.855,0,0,0,148.51,47.14l2.983,8-.749.144s-1.974,10.161-1.974,10.507,3.935,11.8,3.935,11.8l4.583,6.543a33.783,33.783,0,0,0,14.845-8.993S163.629,54.634,158.887,51.565Z" transform="translate(65.51 20.8)"/><path class="f" d="M119.346,51.49a93.84,93.84,0,0,1,11.53-4.18l-2.248,7.811.749.159s2.1,10.175,1.989,10.507a125.6,125.6,0,0,1-8.489,19.99A44.679,44.679,0,0,1,106,77.691S113.494,54.675,119.346,51.49Z" transform="translate(46.753 20.875)"/><path class="f" d="M132.469,43.28s-1.874,4.007-4.569,4.237c0,0,3.185,8.129,14.268,8.273A11.025,11.025,0,0,0,152.1,47.5a9.238,9.238,0,0,1-4.569-3.027,5.678,5.678,0,0,1-3.747,2.882s-.331,5-.894,5.333-1.139-5.333-1.139-5.333S137.816,47.2,132.469,43.28Z" transform="translate(56.417 19.097)"/><path class="ac" d="M153.74,57.68s.519,3.488,1.052,8.748c.245,2.637.5,5.765.692,9.008s.245,6.846.231,10.362-.086,7.048-.13,10.348-.159,6.37-.259,9.022-.2,4.828-.274,6.37l-.144,2.421-.086-2.421c0-1.542-.13-3.747-.144-6.385s-.1-5.765,0-9.022,0-6.817.086-10.334,0-7.033-.086-10.319-.216-6.37-.36-9.008C153.985,61.2,153.74,57.68,153.74,57.68Z" transform="translate(67.818 25.45)"/><path class="j" d="M139.013,51.13s-6.154,50.976-5.664,58.7,6.543,23.06,8.547,23.838,6.37-16.027,7.206-23.06S141.78,51,141.78,51" transform="translate(58.808 22.503)"/><path class="j" d="M137.172,46.624a5.621,5.621,0,0,1,3.79-.2c.836.375,1.686,2.7,1.816,3.358s-1.355,2.882-2.018,3.718a12.006,12.006,0,0,1-2.882.144,8.878,8.878,0,0,1-2.119-4.007,4.036,4.036,0,0,1,1.412-3.012Z" transform="translate(59.885 20.379)"/><path class="aa" d="M183.514,49.785l-.663-1.888-4.324-2.147-3.661,1.917L173.7,53.216s.115.231.274.605h-.85A93.023,93.023,0,0,1,169.865,65c-1.859,5.1-4.684,10.521-5.621,13.432-.259.807-.591,1.931-.966,3.214h0s-.115.36-.274.966v.2h0c-.966,3.574-3.372,14.283,1.931,16.171C174.506,102.4,177,83.438,177,83.438c.749-7.422,1.268-15.926,1.585-21.878a11.919,11.919,0,0,1,1.7-5.621,10.534,10.534,0,0,1,2.508-2.032C184.725,52.61,183.514,49.785,183.514,49.785Z" transform="translate(71.293 20.187)"/><path class="aa" d="M169.53,56.79s.187-11.53,2.292-15.205a1.441,1.441,0,0,1,1.643,1.081c.461,1.441-.706,3.863-.231,5.131s1.225.749,2.147,0,6.658-8.316,7.566-8.287.5,1.182.159,1.859-3.272,5.03-3.272,5.03,5.534-7.206,6.7-6.125c.764.749-4.482,7.206-4.482,7.206s4.324-5.895,5.188-4.8-3.228,5.477-3.228,5.477,2.349-2.969,2.883-2.364-2.537,4.958-3.416,6.313a15.853,15.853,0,0,1-4.511,4.482c-1.2.5-2.133.778-2.493,1.729" transform="translate(74.785 17.433)"/><rect class="ad" width="34.763" height="50.486" transform="translate(174.325 86.264) rotate(14.69)"/><rect class="i" width="34.763" height="50.486" transform="translate(172.585 86.936) rotate(11.16)"/><path class="aa" d="M122.815,76.085c-.85,0-2.018-.086-3.358-.115h-1.211c-3.69,0-14.672.389-15.133,6-.36,4.324,7.206,6.486,16.214,6.586A151.228,151.228,0,0,0,146.38,85.67l-.519-6.774C138.021,78.766,125.871,76.229,122.815,76.085Z" transform="translate(45.475 33.521)"/><path class="aa" d="M147.129,79.565c-.13-.663-.894-1.355-2.219-1.845H145c1.11.2,1.441-.649,1.239-1.038a7.437,7.437,0,0,0-3.675-1.773c-.764.173-4.7,2.263-6.313,2.882a11.616,11.616,0,0,1-4.324,1.542l-.994,7.336a13.489,13.489,0,0,1,4.756,0,23.521,23.521,0,0,0,7.97.793l-.072.375a3.488,3.488,0,0,0,1.931-.605c.663-.591.1-1.744.1-1.744a1.441,1.441,0,0,0,.591-1.009,1.773,1.773,0,0,0-.173-1.153,3.79,3.79,0,0,0,.749-1.239,3.258,3.258,0,0,0-.159-1.182S147.23,80.07,147.129,79.565Z" transform="translate(57.753 33.053)"/><path class="o" d="M132.1,43a24.948,24.948,0,0,0,10,4.655s-1.513,5.131-1.989,5.289A24.026,24.026,0,0,1,128.97,47.18S131.564,43,132.1,43Z" transform="translate(56.889 18.973)"/><path class="o" d="M138.08,47.124a36.316,36.316,0,0,0,2.493,5.059c.418.159,4.108-1.859,5.88-5.477,0,0-2.882-2.724-3.416-2.594a13.447,13.447,0,0,1-4.958,3.012Z" transform="translate(60.908 19.462)"/><path class="aa" d="M143.1,208.46a31.159,31.159,0,0,1-3.1,7.552l.2,6.673,3.56,1.585,10.089-8.763a46.363,46.363,0,0,0,.418-4.943Z" transform="translate(61.755 91.98)"/><path class="f" d="M137.953,228.071c.706,1.139,8.5,1.816,10.406,2.882s6.313,4.194,10.953,4.972,11.847.476,13.418-.836.389-4.108.389-4.108.4-1.686-.375-2.436-5.073-2.58-7.941-4.987-6.86-8.359-9.512-10.089a6.183,6.183,0,0,0-3.589,0c-2.537.533-3.4,3.56-5.635,4.5a3.257,3.257,0,0,1-4.324-1.254c-.461-.908-.461-3.545-1.211-3.344s-2.58,6.226-2.407,10.276C138.141,223.747,137.247,226.918,137.953,228.071Z" transform="translate(60.732 94.074)"/><path class="g" d="M137.952,224.857c.706,1.139,8.5,1.816,10.406,2.882s6.313,4.194,10.953,4.972,11.847.476,13.418-.836.389-4.108.389-4.108-1.657,2.277-10.795.836-10.089-3.646-13.058-4.843a51.756,51.756,0,0,0-11.112-3.272S137.246,223.7,137.952,224.857Z" transform="translate(60.733 97.288)"/><path class="aa" d="M136.656,216.2l-.418-3.935-8.748.187v5.895l1.585,6.2s6.976.072,7.033-.072,1.672-6.918,1.672-6.918Z" transform="translate(56.236 93.661)"/><path class="f" d="M139.085,215s.937,1.787.144,2.969-1.268-.418-3.747-1.153-5.477-.187-6.37.966-1.542,3.834-2.306,6.745-3.848,5.563-4.324,7.552a14.557,14.557,0,0,0-.476,4.54c.173,1.009,5.765,4.093,14.225,1.6,0,0,1.657-.476.937-4.77s3.127-3.228,4.05-7.855S140.6,214.672,139.085,215Z" transform="translate(53.807 94.862)"/><path class="g" d="M141.5,220.63a12.525,12.525,0,0,1-2.176,3.1c-1.1.98-2.882,1.931-3.315,3.228s.432,3.214.274,4.511-2.277,2.7-5.39,2.883-7.711-1.023-8.82-2.075c0,0-.447,2.479,0,3.1s2.119,1.34,6.586,2.075,8.3-.677,8.777-2.1-.086-5.635.259-6.615,3.2-2.969,3.416-3.733S141.945,221.524,141.5,220.63Z" transform="translate(53.757 97.35)"/><path class="i" d="M117.576,135.041c.288,9.973,4.007,44.592,5.16,53.542.576,16.127,8.748,71.211,8.748,71.211,7.307,1.542,10.2-.649,10.2-.649s5.073-42.531,1.2-70.231c2.882-12.741,4.958-45.4,4.958-45.4,2.738,8.95,10.925,37.645,10.925,37.645s-2.45,12.034-3.142,16.747c-2.1,14.182-2.782,55.7-2.782,55.7a18.938,18.938,0,0,0,12.063,2.493s16.257-75.55,16.257-81.905c0-1.7-.259-5.851-.735-11.314v-.1c-2.637-22.325-7.768-47.964-8.95-51.884a117.577,117.577,0,0,1-20.912,2.436A161.881,161.881,0,0,1,118.21,110.9C115.126,117.342,117.418,129.578,117.576,135.041Z" transform="translate(51.435 48.933)"/><g class="ae" transform="translate(143.328)"><path class="af" d="M113.26,18.3l6.413,3.416-3.2-8.33" transform="translate(-93.371 5.908)"/><circle class="af" cx="13.548" cy="13.548" r="13.548"/></g><path class="b" d="M105.235,8.08a1.9,1.9,0,1,1-1.419.556,1.918,1.918,0,0,1,1.419-.556Z" transform="translate(45.544 3.565)"/><path class="b" d="M109.767,8.08a1.918,1.918,0,1,1-1.982,1.852A1.918,1.918,0,0,1,109.767,8.08Z" transform="translate(47.541 3.565)"/><path class="b" d="M114.295,8.08a1.931,1.931,0,1,1-1.409.565,1.917,1.917,0,0,1,1.409-.565Z" transform="translate(49.542 3.565)"/><path class="e" d="M431.522,261.536h-3.8a1.239,1.239,0,0,1-1.211-.951L397.062,146.453l-1.672-6.543h17.223l1.1,6.543,19.053,113.613a1.268,1.268,0,0,1-1.24,1.47Z" transform="translate(174.443 61.733)"/><path class="e" d="M89.356,139.91l-1.686,6.543L58.239,260.585a1.254,1.254,0,0,1-1.211.951h-3.8a1.254,1.254,0,0,1-1.239-1.441L71.023,146.482l1.1-6.543Z" transform="translate(22.914 61.733)"/><path class="ag" d="M66.285,139.91H83.523l-1.686,6.543H65.19Z" transform="translate(28.747 61.733)"/><path class="ag" d="M413.723,146.453H397.076l-1.686-6.543h17.223Z" transform="translate(174.443 61.733)"/><path class="e" d="M52.739,142.1H588.633a3.589,3.589,0,0,0,3.589-3.589h0a3.589,3.589,0,0,0-3.589-3.574H52.739a3.574,3.574,0,0,0-3.589,3.574h0a3.574,3.574,0,0,0,3.589,3.589Z" transform="translate(21.669 59.54)"/><path class="ah" d="M592.28,137.42a3.589,3.589,0,0,1-3.574,3.589H52.724a3.589,3.589,0,0,1-3.574-3.589Z" transform="translate(21.669 60.635)"/><rect class="ai" width="50.314" height="6.298" transform="translate(251.435 188.182)"/><rect class="aj" width="7.091" height="3.127" transform="translate(253.035 189.767)"/><rect class="aj" width="1.614" height="3.127" transform="translate(297.828 189.767)"/><rect class="aj" width="25.38" height="3.127" transform="translate(266.957 189.767)"/><rect class="ak" width="50.314" height="6.298" transform="translate(251.435 175.586)"/><rect class="al" width="5.275" height="3.127" transform="translate(253.035 177.171)"/><rect class="al" width="1.614" height="6.298" transform="translate(297.828 175.586)"/><rect class="al" width="1.614" height="6.298" transform="translate(295.003 175.586)"/><rect class="al" width="29.848" height="3.127" transform="translate(262.489 177.171)"/><path class="am" d="M221.739,126.2v6.3h-50.3v-.85h32.932v-4.525H171.44V126.2Z" transform="translate(75.628 55.684)"/><rect class="an" width="31.822" height="4.525" transform="translate(248.192 182.806)"/><g class="ae" transform="translate(283.07 46.768)"><path class="af" d="M210.22,50.755l6.413,3.416-3.214-8.33" transform="translate(-190.331 -26.542)"/><circle class="af" cx="13.548" cy="13.548" r="13.548"/></g><path class="b" d="M202.2,40.53a1.931,1.931,0,1,1-1.419.56,1.917,1.917,0,0,1,1.419-.56Z" transform="translate(88.322 17.883)"/><path class="b" d="M206.729,40.53a1.917,1.917,0,1,1-1.827,1.146,1.931,1.931,0,0,1,1.827-1.146Z" transform="translate(90.321 17.883)"/><path class="b" d="M211.259,40.53a1.917,1.917,0,1,1-1.827,1.146,1.931,1.931,0,0,1,1.827-1.146Z" transform="translate(92.32 17.883)"/><path class="ao" d="M43.967,218.37s-58.86-79.513-40.355-96.491S49,164.713,43.967,218.37Z" transform="translate(-0.012 52.481)"/><path class="ap" d="M6.438,127.606a221.95,221.95,0,0,1,26.144,54.767,269.164,269.164,0,0,1,10.766,49.751c.908,7.394,1.441,14.8,2.047,22.224a.274.274,0,0,0,.533,0,167.8,167.8,0,0,0-1.441-19.759c-.879-7.812-2.047-15.565-3.56-23.276a240.126,240.126,0,0,0-16.762-53.239A198.014,198.014,0,0,0,6.871,127.332c-.231-.331-.764,0-.533.317Z" transform="translate(2.754 56.123)"/><path class="ap" d="M5.317,135.173c2.508,1.7,5.015,3.387,7.437,5.217,1.283.966,2.551,1.946,3.79,2.955a24.833,24.833,0,0,0,3.5,2.767c.216.13.519-.13.36-.36a17.467,17.467,0,0,0-3.214-3.055c-1.211-1.023-2.45-2.032-3.733-3a49.261,49.261,0,0,0-7.84-5.073.317.317,0,0,0-.3.548Z" transform="translate(2.275 59.393)"/><path class="ap" d="M6.571,138.5c2.508,1.7,5.03,3.4,7.451,5.232,1.268.966,2.537,1.946,3.776,2.955a27.859,27.859,0,0,0,3.5,2.767c.216.115.533-.144.375-.375a18.462,18.462,0,0,0-3.214-3.055C17.236,145,16,143.986,14.729,143.035a48.9,48.9,0,0,0-7.84-5.03.317.317,0,0,0-.317.533Z" transform="translate(2.837 60.885)"/><path class="aq" d="M41.318,207.179s56.756-81.026,37.832-97.514S34.818,153.681,41.318,207.179Z" transform="translate(17.755 47.17)"/><path class="ap" d="M74.067,115.253A208.865,208.865,0,0,0,48.99,170.582a265.591,265.591,0,0,0-9.469,50.213,205.21,205.21,0,0,0-1.11,22.44.274.274,0,0,0,.533,0c.36-6.529.634-12.971,1.2-19.529q1.038-11.833,3.027-23.521a248.715,248.715,0,0,1,15.277-53.455A213.744,213.744,0,0,1,74.6,115.541c.216-.346-.317-.649-.533-.317Z" transform="translate(16.929 50.778)"/><path class="ar" d="M42.18,149.657c-.115,3.6.1,7.206.331,10.824.1,1.643.245,3.286.4,4.943a21.619,21.619,0,0,0,.591,4.41.274.274,0,0,0,.533-.072,26.345,26.345,0,0,0-.216-4.641c-.115-1.6-.216-3.2-.317-4.814-.231-3.545-.36-7.105-.692-10.651a.317.317,0,1,0-.634,0Z" transform="translate(18.58 65.894)"/><path class="aq" d="M49.878,192.34S-7.21,111.559,11.627,94.985,56.147,138.813,49.878,192.34Z" transform="translate(3.431 40.679)"/><path class="ap" d="M14.235,100.859a221.951,221.951,0,0,1,24.9,55.17,269.93,269.93,0,0,1,9.772,50.126c.735,7.408,1.1,14.816,1.542,22.238a.274.274,0,1,0,.548,0c.072-6.586-.375-13.2-.951-19.745q-1.067-11.818-3.084-23.535A239.866,239.866,0,0,0,31.372,131.63a197.813,197.813,0,0,0-16.6-31.087C14.553,100.211,14.019,100.542,14.235,100.859Z" transform="translate(6.241 44.302)"/><path class="ao" d="M33.48,196.433s35.137-48.31,23.91-58.471S30.107,164.092,33.48,196.433Z" transform="translate(14.554 60.106)"/><path class="ap" d="M54.348,141.291a123.816,123.816,0,0,0-15.854,33.033A161.016,161.016,0,0,0,32.21,204.59a104.608,104.608,0,0,0-.85,13.591.274.274,0,1,0,.548,0c.375-3.92.591-7.869,1.009-11.8.49-4.727,1.2-9.44,2.09-14.11a150.608,150.608,0,0,1,9.844-32.2,134.738,134.738,0,0,1,9.973-18.52c.216-.346-.317-.649-.533-.317Z" transform="translate(13.82 62.254)"/><path class="e" d="M62.59,202.4l-.245,1.672-.533,3.56-5.073,34.143H26.386L21.3,207.632l-.519-3.56L20.52,202.4Z" transform="translate(9.037 89.306)"/><path class="ag" d="M62.265,203.56l-.533,3.56H21.219l-.519-3.56Z" transform="translate(9.116 89.818)"/><path class="e" d="M64.125,206.17H20.888a2.508,2.508,0,0,1-2.508-2.522h0a2.508,2.508,0,0,1,2.508-2.508H64.125a2.508,2.508,0,0,1,2.522,2.508h0a2.522,2.522,0,0,1-2.522,2.522Z" transform="translate(8.092 88.75)"/><path class="y" d="M116.941,128.268a2.882,2.882,0,0,0-1.657-1.758,4.007,4.007,0,0,0-2.277-.13l.231-1.729H98.94l1.7,13.072a2.046,2.046,0,0,0,.778,1.355,2.437,2.437,0,0,0,.706.331,1.932,1.932,0,0,0,.5.072h6.9a2.075,2.075,0,0,0,1.2-.389h0a2,2,0,0,0,.778-1.326h0l.187-1.441a17.552,17.552,0,0,0,1.931-1.2C115.875,133.355,118.152,131.323,116.941,128.268Zm-3.906,5.938a11.114,11.114,0,0,1-1.139.749l.98-7.523a3.488,3.488,0,0,1,2.032,0,1.946,1.946,0,0,1,1.1,1.182C116.855,130.8,115.557,132.361,113.035,134.205Z" transform="translate(43.638 55)"/><path class="r" d="M112.262,124.681l-.231,1.729-.13,1.052-.98,7.523-.173,1.268-.187,1.441h0a2,2,0,0,1-.778,1.326h0a2.075,2.075,0,0,1-1.2.389h-6.932a1.932,1.932,0,0,1-.5-.072c1.124-.476,7.941-3.762,8.229-14.758Z" transform="translate(44.613 54.969)"/><path class="y" d="M397.691,128.268a2.882,2.882,0,0,0-1.672-1.758,3.949,3.949,0,0,0-2.263-.13l.231-1.729h-14.3l1.7,13.072a2.047,2.047,0,0,0,.778,1.355,2.437,2.437,0,0,0,.706.331,1.932,1.932,0,0,0,.5.072h6.846a2.076,2.076,0,0,0,1.2-.389h0a2,2,0,0,0,.778-1.326h0l.187-1.441a17.553,17.553,0,0,0,1.931-1.2C396.625,133.355,398.873,131.323,397.691,128.268Zm-3.906,5.938a11.124,11.124,0,0,1-1.139.749l.98-7.523a3.488,3.488,0,0,1,2.032,0,1.946,1.946,0,0,1,1.1,1.182C397.6,130.8,396.307,132.361,393.785,134.205Z" transform="translate(167.515 55)"/><path class="r" d="M393,124.681l-.231,1.729-.13,1.052-.98,7.523-.173,1.268L391.3,137.7h0a2,2,0,0,1-.778,1.326h0a2.075,2.075,0,0,1-1.2.389h-6.9a1.931,1.931,0,0,1-.5-.072c1.124-.476,7.941-3.762,8.229-14.758Z" transform="translate(168.499 54.969)"/></g></g></svg>