<svg xmlns="http://www.w3.org/2000/svg" width="23.02" height="23.795" viewBox="0 0 23.02 23.795"><defs><style>.a{fill:#a5b7c5;}</style></defs><g transform="translate(-6.913 0.001)"><g transform="translate(6.913 -0.001)"><g transform="translate(0)"><circle class="a" cx="2.813" cy="2.813" r="2.813" transform="translate(6.343 18.169)"/><path class="a" d="M269.31,324.1h0a2.813,2.813,0,1,0,2.813,2.813A2.813,2.813,0,0,0,269.31,324.1Z" transform="translate(-251.945 -305.929)"/><path class="a" d="M29.072,15.3H14.4l-.287-1.665H26.173a.861.861,0,0,0,.8-.545l2.87-7.233a.861.861,0,0,0-.8-1.177H12.625L11.936.717A.861.861,0,0,0,11.075,0h-3.3a.861.861,0,1,0,0,1.722h2.583L12.826,16.3a.861.861,0,0,0,.861.718H29.072a.861.861,0,0,0,0-1.722Z" transform="translate(-6.913 0.001)"/></g></g></g></svg>