<svg xmlns="http://www.w3.org/2000/svg" width="22.378" height="29.378" viewBox="0 0 22.378 29.378"><defs><style>.a{fill:#a5b7c5;}</style></defs><g transform="translate(-61)"><path class="a" d="M166,0h4.3V3.5H166Z" transform="translate(-98.975)"/><path class="a" d="M271,0h4.3V3.5H271Z" transform="translate(-197.95)"/><path class="a" d="M271,241h4.3v3.5H271Z" transform="translate(-197.95 -227.172)"/><path class="a" d="M61,91H71.328v6.885H61Z" transform="translate(0 -85.779)"/><path class="a" d="M166,241h4.3v3.5H166Z" transform="translate(-98.975 -227.172)"/><path class="a" d="M61,243.639a.86.86,0,0,0,.861.861H65.3V241H61Z" transform="translate(0 -227.172)"/><path class="a" d="M379.443,244.5a.86.86,0,0,0,.861-.861V241H376v3.5Z" transform="translate(-296.926 -227.172)"/><path class="a" d="M380.3.861A.86.86,0,0,0,379.443,0H376V3.5h4.3Z" transform="translate(-296.926)"/><path class="a" d="M271,91h10.328v6.885H271Z" transform="translate(-197.95 -85.779)"/><path class="a" d="M61.861,0A.86.86,0,0,0,61,.861V3.5h4.3V0Z" transform="translate(0)"/><path class="a" d="M61.861,335.443H64.6a2.572,2.572,0,0,0,4.854,0H82.517a.861.861,0,1,0,0-1.721H69.452a2.572,2.572,0,0,0-4.854,0H61.861a.861.861,0,1,0,0,1.721Z" transform="translate(0 -312.95)"/><path class="a" d="M61.861,425.443H73.2a2.572,2.572,0,0,0,4.854,0h4.458a.861.861,0,1,0,0-1.721H78.059a2.572,2.572,0,0,0-4.854,0H61.861a.861.861,0,1,0,0,1.721Z" transform="translate(0 -397.786)"/></g></svg>