<svg xmlns="http://www.w3.org/2000/svg" width="24.001" height="17.46" viewBox="0 0 24.001 17.46"><defs><style>.a{fill:none;stroke:#ff3737;stroke-linecap:round;stroke-linejoin:round;stroke-width:2px;}</style></defs><g transform="translate(0.001 -3)"><path class="a" d="M22.54,6.42a2.78,2.78,0,0,0-1.94-2C18.88,4,12,4,12,4s-6.88,0-8.6.46a2.78,2.78,0,0,0-1.94,2A29,29,0,0,0,1,11.75a29,29,0,0,0,.46,5.33A2.78,2.78,0,0,0,3.4,19c1.72.46,8.6.46,8.6.46s6.88,0,8.6-.46a2.78,2.78,0,0,0,1.94-2A29,29,0,0,0,23,11.75a29,29,0,0,0-.46-5.33Z"/><path class="a" d="M9.75,15.02l5.75-3.27L9.75,8.48Z"/></g></svg>